# xmcd CD database file
# Copyright (C) 1996 Ti Kan
#
# Track frame offsets:
#  177
#  15690
#  42547
#  64340
#  78677
#  102867
#  117102
#  138202
#  155347
#  176630
#
# Disc length: 2622 seconds
#
# Revision: 2
# Processed by: cddbd v1.4b41PL1 Copyright (c) Steve Scherf et al.
# Submitted via: CDWizzard Release:4.12
#
DISCID=820a3c0a
DTITLE=Champion Jack Dupree - Back Home In New Orleans
DYEAR=1900
DGENRE=
TTITLE0=When I'm Drinkin'
TTITLE1=Lonesome Bedroom
TTITLE2=I Don't Know
TTITLE3=Calcutta
TTITLE4=Freedom
TTITLE5=My Woman Left Me
TTITLE6=Broken Hearted
TTITLE7=Way Down
TTITLE8=The Blind Man
TTITLE9=No Future
EXTD=Rounder/Bulls Eye Blues CD 9502\n\nChampion Jack Dupree:  piano, voc
EXTD=als and foot\nKenn Lending:  guitar\nStanley Stephens:  drums\nTeddy
EXTD=Riley:  trumpet\nAlvin "Red" Tyler:  tenor saxophone\nFred Kemp:  t
EXTD=enor saxophone\n"Sax" Gordon tenor and baritone saxophones\n\nSubmit
EXTD=ted by J. McCoy (April 1997)
EXTT0=
EXTT1=
EXTT2=
EXTT3=
EXTT4=
EXTT5=
EXTT6=
EXTT7=
EXTT8=
EXTT9=
PLAYORDER=
